# xmcd
#
# Track frame offsets: 
#        150
#        12807
#        38117
#        48554
#        85971
#        98305
#        106421
#        124588
#        142280
#        157955
#        169156
#        197302
#        215642
#
# Disc length: 3851 seconds
#
# Revision: 0
# Processed by: cddbd v1.4PL0 Copyright (c) Steve Scherf et al.
# Submitted via: ExactAudioCopy v0.90b3
#
DISCID=a60f090d
DTITLE=Martin Stephenson - Martin Stephenson
DYEAR=1900
DGENRE=
TTITLE0=Look Down Look Down
TTITLE1=Slaughterman
TTITLE2=Better Plan
TTITLE3=All Ways Us
TTITLE4=Song Of Love And Desertion
TTITLE5=Sweet Misdemeanour
TTITLE6=Little Red Bottle
TTITLE7=Coleen
TTITLE8=Bridge Of Nae Hope
TTITLE9=Running Water
TTITLE10=Taker On The Globe
TTITLE11=New Wave
TTITLE12=The Wait
EXTD=
EXTT0=
EXTT1=
EXTT2=
EXTT3=
EXTT4=
EXTT5=
EXTT6=
EXTT7=
EXTT8=
EXTT9=
EXTT10=
EXTT11=
EXTT12=
PLAYORDER=
